<?xml version="1.0" standalone="no"?>
<!DOCTYPE svg PUBLIC "-//W3C//DTD SVG 20010904//EN"
 "http://www.w3.org/TR/2001/REC-SVG-20010904/DTD/svg10.dtd">
<svg version="1.0" xmlns="http://www.w3.org/2000/svg"
 width="530.000000pt" height="530.000000pt" viewBox="0 0 530.000000 530.000000"
 preserveAspectRatio="xMidYMid meet">
<metadata>
Created by potrace 1.14, written by Peter Selinger 2001-2017
</metadata>
<g transform="translate(0.000000,530.000000) scale(0.100000,-0.100000)"
fill="#000000" stroke="none">
<path d="M0 2650 l0 -2650 1265 0 1266 0 -6 33 c-49 263 -141 814 -136 818 12
12 1166 218 1171 209 3 -5 55 -245 115 -534 l109 -526 758 0 758 0 0 2650 0
2650 -1306 0 -1307 0 6 -167 c3 -98 12 -199 22 -243 46 -209 148 -445 273
-630 73 -107 105 -148 246 -305 307 -342 486 -655 574 -1003 24 -98 27 -123
26 -292 0 -181 -1 -187 -32 -280 -17 -52 -48 -124 -69 -160 -49 -84 -157 -197
-244 -256 -38 -26 -69 -52 -69 -58 0 -6 22 -144 49 -306 27 -162 47 -296 46
-298 -4 -4 -1150 -220 -1190 -224 l-30 -3 -35 339 -35 340 -90 60 c-113 76
-272 234 -347 347 -317 475 -339 1139 -62 1863 20 53 38 95 40 94 1 -2 -2 -26
-7 -53 -45 -242 -56 -587 -25 -799 74 -511 301 -876 656 -1052 131 -66 223
-88 360 -89 135 0 201 18 261 72 120 109 50 246 -221 428 -359 241 -558 514
-641 875 -34 149 -35 469 -2 556 4 10 19 -17 40 -73 155 -401 388 -673 579
-673 87 0 138 29 174 100 80 158 -20 370 -254 539 -257 186 -387 447 -427 858
l-12 122 56 70 c31 38 104 121 162 185 l106 116 -1285 0 -1286 0 0 -2650z"/>
</g>
</svg>
